<svg xmlns="http://www.w3.org/2000/svg" width="30px" fill="#424242" viewBox="0 0 200 200"><path d="M100.012 17C47.547 17 5.025 51.544 5.025 94.177c0 17.662 7.383 33.84 19.628 46.864-5.529 14.619-17.031 27.012-17.217 27.16a8.904 8.904 0 00-1.706 9.647 8.932 8.932 0 008.2 5.38c22.819 0 40.815-9.535 51.612-17.179a114.581 114.581 0 0034.47 5.306c52.466 0 94.988-34.544 94.988-77.177C195 51.543 152.478 17 100.012 17zm0 142.482c-10.5 0-20.89-1.596-30.87-4.75l-5.64-1.781-4.824 3.414c-8.534 6.048-21.706 13.098-38.07 14.693 4.453-5.603 11.058-14.99 15.14-25.825l2.634-6.938-5.084-5.417c-10.723-11.354-16.4-24.749-16.4-38.7 0-35.992 37.29-65.305 83.114-65.305 45.824 0 83.115 29.313 83.115 65.304 0 35.992-37.291 65.305-83.115 65.305zm28.126-48.496c-6.976 8.2-17.217 12.875-28.126 12.875-10.908 0-21.15-4.675-28.125-12.838-2.115-2.486-5.862-2.746-8.349-.668-2.523 2.152-2.782 5.863-.667 8.386 9.202 10.797 22.745 16.994 37.141 16.994 14.397 0 27.94-6.197 37.179-17.031 2.152-2.486 1.818-6.234-.668-8.386-2.486-2.115-6.233-1.818-8.385.668zM76.265 85.272a8.884 8.884 0 008.906-8.905 8.884 8.884 0 00-8.906-8.905 8.884 8.884 0 00-8.905 8.905 8.884 8.884 0 008.905 8.905zm47.494 0a8.884 8.884 0 008.905-8.905 8.884 8.884 0 00-8.905-8.905 8.884 8.884 0 00-8.905 8.905 8.884 8.884 0 008.905 8.905z"/></svg>